HIERARCHY
ROOT Hips
{
	OFFSET 0.000000 0.000000 0.000000
	CHANNELS 6 Xposition Yposition Zposition Zrotation Yrotation Xrotation 
	JOINT LHipJoint
	{
		OFFSET 0.000000 0.000000 0.000000
		CHANNELS 3 Zrotation Yrotation Xrotation
		JOINT LeftUpLeg
		{
			OFFSET 1.363060 -1.794630 0.839290
			CHANNELS 3 Zrotation Yrotation Xrotation
			JOINT LeftLeg
			{
				OFFSET 2.448110 -6.726130 0.000000
				CHANNELS 3 Zrotation Yrotation Xrotation
				JOINT LeftFoot
				{
					OFFSET 2.562200 -7.039590 0.000000
					CHANNELS 3 Zrotation Yrotation Xrotation
					JOINT LeftToeBase
					{
						OFFSET 0.157640 -0.433110 2.322550
						CHANNELS 3 Zrotation Yrotation Xrotation
						End Site
						{
							OFFSET 0.000000 0.000000 0.000000
						}
					}
				}
			}
		}
	}
	JOINT RHipJoint
	{
		OFFSET 0.000000 0.000000 0.000000
		CHANNELS 3 Zrotation Yrotation Xrotation
		JOINT RightUpLeg
		{
			OFFSET -1.305520 -1.794630 0.839290
			CHANNELS 3 Zrotation Yrotation Xrotation
			JOINT RightLeg
			{
				OFFSET -2.542530 -6.985550 0.000000
				CHANNELS 3 Zrotation Yrotation Xrotation
				JOINT RightFoot
				{
					OFFSET -2.568260 -7.056230 0.000000
					CHANNELS 3 Zrotation Yrotation Xrotation
					JOINT RightToeBase
					{
						OFFSET -0.164730 -0.452590 2.363150
						CHANNELS 3 Zrotation Yrotation Xrotation
						End Site
						{
							OFFSET 0.000000 0.000000 0.000000
						}
					}
				}
			}
		}
	}
}
MOTION
Frames: 19
Frame Time: 0.008333
26.972296 17.128957 4.500772 -29.784631 -87.416925 34.095693 -11.906905 5.846819 1.429034 3.428409 12.503407 11.952274 -0.096076 1.256657 13.136662 1.108355 5.356435 19.318563 1.948600 0.000000 -83.220800 8.713871 -1.679884 2.612607 9.774920 -6.028594 -24.394924 2.588154 0.047279 12.053306 -1.066557 -5.974229 0.854835 -1.611000 0.000000 -33.879400
26.837193 17.138251 4.451738 -28.636801 -87.247310 32.853784 -11.937232 5.874952 1.501889 3.812641 12.062000 11.789451 0.003386 1.327075 14.098159 1.160307 5.010091 20.601403 1.837300 -0.000000 -83.721000 8.698218 -1.703548 2.547729 9.899478 -5.976690 -24.112336 2.546502 -0.029469 12.932372 -1.107199 -6.052938 0.327091 -1.546600 0.000000 -32.393200
26.702325 17.147940 4.401592 -27.315827 -87.062796 31.441431 -11.962283 5.895120 1.576993 4.181215 11.599733 11.558503 0.101414 1.393469 15.155452 1.217971 4.607303 21.936791 1.685400 -0.000001 -83.881200 8.687340 -1.724064 2.480531 10.019545 -5.945990 -23.769461 2.514586 -0.092085 13.710727 -1.140207 -6.075073 -0.274171 -1.460700 0.000000 -30.869200
26.568149 17.157671 4.351072 -26.057324 -86.858650 30.087146 -11.990297 5.905592 1.649396 4.558521 11.138370 11.259051 0.197644 1.455340 16.315154 1.281450 4.131030 23.322075 1.480700 -0.000000 -83.596200 8.673889 -1.743538 2.408383 10.150256 -5.932311 -23.345570 2.493445 -0.139158 14.368050 -1.168033 -6.061163 -0.927559 -1.361100 -0.000000 -29.305600
26.434684 17.167259 4.299997 -24.693204 -86.634116 28.631658 -12.015263 5.906491 1.723965 4.919363 10.665794 10.882929 0.289717 1.510371 17.572559 1.352429 3.623159 24.733210 1.239600 0.000001 -82.789100 8.663536 -1.761727 2.333058 10.280207 -5.949097 -22.856523 2.481104 -0.171385 14.901320 -1.191734 -6.019828 -1.610509 -1.253400 0.000000 -27.776600
26.302085 17.176458 4.248914 -23.357998 -86.388484 27.204621 -12.040932 5.896318 1.797658 5.271684 10.196999 10.429211 0.375934 1.557895 18.927609 1.430557 3.107236 26.132212 0.972500 -0.000000 -81.389500 8.652572 -1.779683 2.253740 10.416614 -5.995939 -22.299259 2.476484 -0.188833 15.303711 -1.214319 -5.973579 -2.298648 -1.144900 -0.000001 -26.319400
26.170475 17.185179 4.198008 -22.036244 -86.124162 25.794076 -12.065217 5.874980 1.870340 5.605098 9.736619 9.898547 0.454198 1.597344 20.371318 1.515247 2.640758 27.466300 0.711101 0.000000 -79.414301 8.642680 -1.797821 2.170758 10.555850 -6.081166 -21.686640 2.477516 -0.193106 15.582492 -1.237241 -5.934004 -2.971526 -1.040100 -0.000000 -25.003700
26.040232 17.193283 4.148131 -20.973236 -85.843499 24.641139 -12.097156 5.840940 1.934557 5.948134 9.318516 9.282428 0.522790 1.630793 21.919850 1.602518 2.242913 28.654975 0.469700 0.000001 -76.634700 8.624018 -1.818100 2.087270 10.716465 -6.177892 -21.008655 2.483036 -0.182891 15.725338 -1.266480 -5.939707 -3.609093 -0.946700 -0.000001 -23.814100
25.911279 17.200799 4.099140 -20.019847 -85.553112 23.599181 -12.129181 5.795463 1.991558 6.272773 8.937108 8.591277 0.581437 1.659472 23.543740 1.692064 2.017481 29.644179 0.314100 -0.000000 -73.388000 8.603344 -1.839651 2.003372 10.883959 -6.303005 -20.290567 2.490630 -0.161738 15.757069 -1.300544 -5.982704 -4.202516 -0.863100 -0.000000 -22.821900
25.784077 17.207822 4.051395 -19.246913 -85.258592 22.739392 -12.163747 5.738829 2.036812 6.586330 8.612317 7.824780 0.630623 1.686664 25.239686 1.780920 2.016343 30.364160 0.282500 -0.000000 -69.725300 8.577329 -1.863316 1.922170 11.063443 -6.440923 -19.536841 2.499154 -0.130409 15.684721 -1.341624 -6.076039 -4.746566 -0.790700 0.000000 -22.011000
25.658347 17.214479 4.005069 -18.646382 -84.966689 22.052119 -12.200173 5.671573 2.067609 6.884450 8.353294 6.988559 0.672032 1.715597 26.993207 1.867668 2.294621 30.764321 0.412800 -0.000000 -65.837800 8.545921 -1.888918 1.846041 11.252914 -6.582238 -18.756658 2.507558 -0.090480 15.521782 -1.389977 -6.220054 -5.242426 -0.728300 0.000000 -21.361500
25.534199 17.220932 3.960146 -18.188065 -84.684168 21.510049 -12.237260 5.594681 2.082570 7.160567 8.164672 6.089986 0.707778 1.748887 28.785785 1.951770 2.886979 30.809828 0.725900 -0.000001 -61.932701 8.509852 -1.916328 1.777422 11.448797 -6.717649 -17.958680 2.515226 -0.043468 15.282904 -1.444961 -6.408721 -5.696006 -0.673699 0.000000 -20.838700
25.411485 17.227418 3.916533 -17.837059 -84.417112 21.077926 -12.273532 5.508742 2.081283 7.405447 8.044757 5.139779 0.739990 1.788261 30.594005 2.033905 3.803540 30.487002 1.220800 -0.000000 -58.241300 8.470346 -1.944782 1.718325 11.645858 -6.836989 -17.149190 2.521738 0.009332 14.980429 -1.505449 -6.632957 -6.115078 -0.624500 0.000000 -20.400200
25.290451 17.234109 3.873952 -17.528848 -84.170998 20.691851 -12.306043 5.414860 2.063651 7.608629 7.992686 4.146660 0.769512 1.834788 32.399171 2.113632 5.015628 29.780104 1.865200 -0.000000 -54.774200 8.430762 -1.973406 1.669667 11.835343 -6.937537 -16.336103 2.526874 0.066157 14.631259 -1.568931 -6.875223 -6.510829 -0.577100 0.000000 -19.997900
25.170832 17.241240 3.832192 -17.229984 -83.949779 20.318273 -12.333139 5.313727 2.031631 7.759602 7.996116 3.126240 0.797162 1.887688 34.167959 2.193200 6.480645 28.716710 2.612900 -0.000000 -51.732300 8.392740 -2.001217 1.632607 12.011623 -7.008978 -15.518300 2.530349 0.126542 14.238786 -1.634160 -7.127057 -6.888242 -0.530200 0.000001 -19.595500
25.052362 17.248938 3.790812 -16.872041 -83.756095 19.889838 -12.351265 5.207076 1.986756 7.847752 8.048222 2.088720 0.821877 1.945975 35.878071 2.272034 8.120756 27.308188 3.394100 -0.000000 -49.005700 8.360745 -2.027292 1.606428 12.164405 -7.054773 -14.700210 2.531980 0.189047 13.815444 -1.698165 -7.370040 -7.255433 -0.481300 0.000000 -19.157800
24.935043 17.257292 3.749488 -16.419661 -83.591124 19.369924 -12.358442 5.096115 1.931845 7.864041 8.134041 1.048307 0.842494 2.007263 37.497608 2.351382 9.856425 25.606388 4.141100 0.000000 -46.660000 8.337121 -2.050649 1.590659 12.287803 -7.070503 -13.877730 2.531230 0.253451 13.359538 -1.759845 -7.599049 -7.611662 -0.430199 0.000000 -18.670500
24.818712 17.266358 3.707910 -15.829636 -83.454590 18.716060 -12.352399 4.982802 1.869752 7.802133 8.241075 0.015547 0.857024 2.069021 39.001856 2.430501 11.598435 23.660455 4.787900 0.000000 -44.589401 8.324807 -2.070764 1.583967 12.375499 -7.058337 -13.048230 2.527485 0.319275 12.871365 -1.817920 -7.808703 -7.955038 -0.377500 0.000000 -18.130100
24.703386 17.276084 3.665710 -15.055569 -83.344991 17.880035 -12.330780 4.869008 1.803505 7.654246 8.354638 -0.999190 0.863495 2.128394 40.367811 2.508299 13.267301 21.535558 5.285100 0.000000 -42.730500 8.327149 -2.086914 1.583431 12.420375 -7.026717 -12.211300 2.520027 0.385682 12.352575 -1.870873 -7.993556 -8.281492 -0.324101 0.000000 -17.547900
